<?xml version="1.0" encoding="utf-8"?>
<!-- Generator: Adobe Illustrator 25.2.0, SVG Export Plug-In . SVG Version: 6.00 Build 0)  -->
<svg version="1.1" id="Layer_1" xmlns="http://www.w3.org/2000/svg" xmlns:xlink="http://www.w3.org/1999/xlink" x="0px" y="0px"
	 viewBox="0 0 610.9 412.2" style="enable-background:new 0 0 610.9 412.2;" xml:space="preserve">
<style type="text/css">
	.st0{fill:#F5F5F5;}
</style>
<path class="st0" d="M116,208.8c-6.1,0-11,4.9-11,11s4.9,11,11,11s11-4.9,11-11l0,0C127,213.8,122.1,208.8,116,208.8z"/>
<circle class="st0" cx="117.7" cy="134.7" r="7.9"/>
<path class="st0" d="M156.5,160.2c0-6.7-5.4-12.1-12.1-12.1c-6.7,0-12.1,5.4-12.1,12.1c0,6.7,5.4,12.1,12.1,12.1c0,0,0,0,0,0
	C151.1,172.3,156.5,166.9,156.5,160.2z"/>
<path class="st0" d="M108.8,181.3l-23-6.1c-0.2-0.1-0.4-0.2-0.4-0.4l-6.1-23c-0.1-0.3-0.4-0.5-0.7-0.4c-0.2,0.1-0.4,0.2-0.4,0.4
	l-6.1,23c-0.1,0.2-0.2,0.4-0.4,0.4l-23,6.1c-0.3,0.1-0.5,0.4-0.4,0.7c0.1,0.2,0.2,0.4,0.4,0.4l23,6.1c0.2,0.1,0.4,0.2,0.4,0.4
	l6.1,23c0.1,0.3,0.4,0.5,0.7,0.4c0.2-0.1,0.4-0.2,0.4-0.4l6.1-23c0.1-0.2,0.2-0.4,0.4-0.4l23-6.1c0.3-0.1,0.5-0.4,0.4-0.7
	C109.2,181.5,109,181.3,108.8,181.3z"/>
<path class="st0" d="M193.2,213.9l-15.1-5.8c-0.1,0-0.1-0.1-0.2-0.2l-5.8-15.1c-0.1-0.2-0.2-0.2-0.4-0.2c-0.1,0-0.1,0.1-0.2,0.2
	l-5.8,15.1c0,0.1-0.1,0.1-0.2,0.2l-15.1,5.8c-0.2,0.1-0.2,0.3-0.2,0.4c0,0.1,0.1,0.1,0.2,0.2l15.1,5.8c0.1,0,0.1,0.1,0.2,0.2
	l5.8,15.1c0.1,0.2,0.2,0.2,0.4,0.2c0.1,0,0.1-0.1,0.2-0.2l5.8-15.1c0-0.1,0.1-0.1,0.2-0.2l15.1-5.8c0.2,0,0.3-0.2,0.2-0.4
	C193.4,214,193.4,213.9,193.2,213.9z"/>
<path class="st0" d="M162.3,102.3c23.1-13.4,47.6-24.1,73.1-31.8c25.4-7.7,51.6-12.4,78.1-13.9h0.2c2.2-0.3,3.8-2.4,3.5-4.7
	c-0.3-2.1-2.2-3.6-4.3-3.5c-26.9,2.7-53.4,8.6-79,17.5c-25.4,8.9-49.7,20.7-72.4,35.2c-0.3,0.2-0.5,0.7-0.2,1
	C161.5,102.4,161.9,102.5,162.3,102.3L162.3,102.3L162.3,102.3z"/>
<path class="st0" d="M364.8,56.3c28.5,2.1,56.6,7.9,83.6,17.2l14.2,35.7l1.5,0.7c7.8,3.4,15.5,7.1,23.1,11.2c-0.1,0.6-0.1,1.2,0,1.9
	c0.5,5.5,5.4,9.5,10.9,9c5.5-0.5,9.5-5.4,9-10.9s-5.4-9.5-10.9-9c-1.9,0.2-3.7,0.9-5.1,2c-7.3-3.9-14.8-7.5-22.3-10.9l-10.4-26
	c22.8,8.6,44.7,19.6,65.2,32.9c-0.9,5.4,2.7,10.6,8.2,11.6c5.4,0.9,10.6-2.7,11.6-8.2s-2.7-10.6-8.2-11.6c-1.2-0.2-2.5-0.2-3.7,0.1
	c-1.2,0.2-2.4,0.7-3.5,1.4c-23.4-15.1-48.5-27.4-74.8-36.6c-0.4-0.2-0.8-0.3-1.2-0.4c-28-9.7-57.1-15.8-86.6-18
	c-2.2-0.2-4.1,1.5-4.3,3.7C361,54.2,362.7,56.1,364.8,56.3L364.8,56.3z"/>
<path class="st0" d="M271.4,132.5c2.2-0.7,3.3-3,2.6-5.2c-0.7-2-2.8-3.2-4.9-2.7c-21.5,6.1-42.2,14.7-61.7,25.6
	c-19.4,10.8-37.5,23.8-54.1,38.6c-0.3,0.3-0.3,0.7-0.1,1c0.3,0.3,0.7,0.3,1,0.1c17.1-13.8,35.6-25.7,55.3-35.4
	c19.6-9.6,40.2-17,61.5-21.9L271.4,132.5z"/>
<path class="st0" d="M277.9,103.2c0.3,1.4,1.6,2.3,3,2c24.1-4.7,48.7-6.3,73.2-4.9c21.4,1.3,42.6,4.9,63.3,10.7
	c0.7,5.5,5.8,9.3,11.2,8.6s9.3-5.8,8.6-11.2c-0.7-5.5-5.8-9.3-11.2-8.6c-2.5,0.3-4.8,1.6-6.4,3.5c-21.3-5.6-43.1-8.8-65.1-9.7
	c-25-1-50.1,1.2-74.6,6.5C278.5,100.5,277.6,101.8,277.9,103.2z"/>
<path class="st0" d="M396.6,156.3c-3.1,0-6,1.5-7.9,3.9c-10-1.9-20-3.2-30.2-3.8c-26.2-1.7-52.5,0.8-78,7.3
	c-12.7,3.2-25.1,7.5-37.1,12.6c-1.3,0.6-1.9,2.1-1.4,3.4s2.1,1.9,3.4,1.4l0,0c11.9-4.8,24.1-8.7,36.5-11.6c24.9-5.8,50.5-7.7,76-5.6
	c9.7,0.8,19.4,2.2,28.9,4.2c1,5.3,6.2,8.8,11.5,7.8c5.3-1,8.8-6.2,7.8-11.5C405.3,159.6,401.3,156.3,396.6,156.3L396.6,156.3z"/>
<path class="st0" d="M551.9,156.5c5.5,0,10-4.5,10-10s-4.5-10-10-10s-10,4.5-10,10S546.4,156.5,551.9,156.5z"/>
<path class="st0" d="M552.1,218.6c-1.1,0-2.2,0.2-3.2,0.5c-5.5-6-11.3-11.7-17.2-17.2c-8-7.4-16.4-14.3-25.2-20.8
	c-3.4-2.5-6.8-4.9-10.3-7.2l19.9-4.2c9.3,6.9,18.1,14.4,26.6,22.3c-0.4,1.2-0.6,2.4-0.6,3.7c0.1,5.5,4.7,9.9,10.2,9.8
	c5.5-0.1,9.9-4.7,9.8-10.2c-0.1-5.5-4.7-9.9-10.2-9.8c0,0,0,0,0,0c-1.2,0-2.4,0.3-3.6,0.8c-9.1-8.5-18.7-16.6-28.8-24l-1.5-1.1
	l-31.3,6.6c-21-13-43.7-23.2-67.4-30.2c-2.1-0.6-4.3,0.6-5,2.7s0.6,4.3,2.7,5c30.5,9.1,59.2,23.5,84.8,42.4
	c8.6,6.3,16.8,13.1,24.6,20.3c5.7,5.3,11.3,10.8,16.6,16.6c-2.3,5-0.2,11,4.8,13.3c5,2.3,11,0.2,13.3-4.8c2.3-5,0.2-11-4.8-13.3
	C554.9,219,553.5,218.7,552.1,218.6L552.1,218.6z"/>
<polygon class="st0" points="73,298.5 71.4,298.5 60.7,262.4 48.9,262.4 64.4,310.7 79.3,310.7 94.7,262.4 82.9,262.4 "/>
<polygon class="st0" points="103.7,310.7 137.4,310.7 137.4,301.3 114.8,301.3 114.8,291 134.1,291 134.1,281.7 114.8,281.7 
	114.8,271.8 137.6,271.8 137.6,262.4 103.7,262.4 "/>
<path class="st0" d="M185.6,279.3c0-12.7-8.1-16.9-19.8-16.9h-16.8v48.3h11.1v-14.9h7.6c2.4,5,4.6,9.9,7,14.9h12.4l-8.6-17.8
	C182.9,289.7,185.6,284.7,185.6,279.3z M166.8,286.4h-6.6v-14.6h6.6c5.7,0,7.5,3.8,7.5,7.1S172.5,286.4,166.8,286.4L166.8,286.4z"/>
<path class="st0" d="M210.5,262.3l-16,48.3H206l3-9.2h18l2.9,9.2h11.6l-16-48.3H210.5z M211.2,291.8l6.3-20.2h0.5l6.2,20.2H211.2z"
	/>
<path class="st0" d="M277.1,286.2c0-11.1,4.8-15.2,13.7-15.2c3.8,0.2,7.6,0.9,11.2,2.1v-9.9c-4.3-1.2-8.8-1.7-13.3-1.7
	c-14.5,0-22.8,9.5-22.8,24.9c0,16,7.6,25,22.9,25c4.5,0,9.1-0.8,13.3-2.3v-9.7c-3.8,1.7-7.8,2.6-11.9,2.6
	C283.4,302.1,277.1,298.4,277.1,286.2z"/>
<rect x="313.2" y="303.2" class="st0" width="6.5" height="7.5"/>
<path class="st0" d="M380,279.3c0-12.7-8.1-16.9-19.8-16.9h-16.7v48.3h11v-14.9h7.6c2.4,5,4.6,9.9,7,14.9h12.4l-8.6-17.8
	C377.2,289.7,379.9,284.7,380,279.3z M361.1,286.4h-6.6v-14.6h6.6c5.7,0,7.5,3.8,7.5,7.1S366.8,286.4,361.1,286.4z"/>
<path class="st0" d="M420,293.2c0,5.6-4.2,8.9-9.2,8.9s-9.2-3.3-9.2-8.9v-30.8h-11v29.8c0,12.3,6.2,19.2,20.2,19.2
	c14,0,20.2-7,20.2-19.3v-29.8h-11L420,293.2z"/>
<path class="st0" d="M473.6,285.7v-0.3c3.8-2.1,6.1-6,6.1-10.3c0-6.6-4.7-12.7-15.3-12.7H444v48.3h20.9c10.1,0,16.6-5.6,16.6-13.9
	C481.5,292,479.7,287.8,473.6,285.7z M455,271.8h7.6c3.7,0,6.2,1.5,6.2,4.6c0,4.2-3.2,5.4-6.5,5.4H455V271.8z M464.2,301.3H455
	v-10.1h8.8c3.8,0,6.3,1.1,6.3,4.8C470.2,299.2,468.5,301.3,464.2,301.3z"/>
<rect x="492.4" y="262.4" class="st0" width="11.1" height="48.3"/>
<polygon class="st0" points="548.1,262.4 548.1,293.3 528.5,262.4 516.7,262.4 516.7,310.7 527.7,310.7 527.7,280.8 547.4,310.7 
	559,310.7 559,262.4 "/>
<path class="st0" d="M71.2,328.1C82,328.1,87,334.7,87,346s-5,17.9-15.8,17.9s-15.8-6.6-15.8-18S60.5,328.1,71.2,328.1z M71.3,333.3
	c-6.3,0-9.6,4-9.6,12.7s3.3,12.7,9.5,12.7s9.6-4,9.6-12.7S77.5,333.3,71.3,333.3L71.3,333.3z"/>
<path class="st0" d="M134.5,337.5c0,3.4-1.8,6.4-4.8,8c4.4,1.3,6.1,4.4,6.1,8.1c0,5.7-4.4,9.7-11.3,9.7h-14.4v-34.7h13.8
	C131.1,328.6,134.5,332.9,134.5,337.5z M122.9,343.3c2.9,0.1,5.4-2.1,5.5-5c0,0,0,0,0-0.1c0-2.7-2-4.4-5.4-4.4h-6.8v9.5H122.9z
	 M129.5,353.1c0-3.1-2.3-4.6-5.8-4.6h-7.6v9.6h7.9C127.8,358.1,129.5,355.9,129.5,353.1z"/>
<path class="st0" d="M174.4,353.1c0-4-3.9-4.5-8-5c-4.7-0.6-9.7-2.3-9.7-9.9c0-8.4,6.8-10.2,13.3-10.2c3,0.1,6,0.3,8.9,0.7v5.4
	c-2.9-0.5-5.9-0.7-8.8-0.8c-4.8,0-7.2,1.5-7.2,4.8c0,3.6,3.2,4.2,6.9,4.7c5.1,0.8,10.8,1.6,10.8,10.1c0,7.7-5.4,11-13.2,11
	c-3.4,0-6.9-0.3-10.3-1v-5.5c3.2,0.7,6.5,1.1,9.8,1.2C171.8,358.6,174.4,356.8,174.4,353.1z"/>
<path class="st0" d="M226.3,328.6v5.2h-17.2v9.4H224v5.2h-14.9v9.6h17.1v5.2H203v-34.7L226.3,328.6z"/>
<path class="st0" d="M260.2,328.6c8,0,13.1,3.6,13.1,11.7c0,4-2,7.6-5.3,9.8l6.6,13.2h-6.8c-1.9-3.8-3.8-7.7-5.7-11.6
	c-0.6,0-1.6,0-2.8,0h-4.4v11.5h-6.1v-34.7L260.2,328.6z M254.9,346.5h5.9c4.5,0,6.3-3.4,6.3-6.5c0.1-3.4-2.6-6.2-5.9-6.2
	c-0.2,0-0.3,0-0.5,0h-5.8V346.5z"/>
<path class="st0" d="M312.9,363.3h-8.5l-11.6-34.7h6.6l9,28h0.9l8.6-28h6.6L312.9,363.3z"/>
<path class="st0" d="M351.4,328.6h8.4l11.9,34.8h-6.4l-2.4-7.2h-14.5l-2.4,7.3h-6.4L351.4,328.6z M349.7,350.7h11.6l-5.5-16.9h-0.5
	L349.7,350.7z"/>
<path class="st0" d="M415.4,333.9h-11.5v29.5h-6.1v-29.5h-11.5v-5.2h29L415.4,333.9z"/>
<path class="st0" d="M450.7,328.1c10.8,0,15.8,6.6,15.8,17.9s-5,17.9-15.8,17.9s-15.8-6.6-15.8-17.9S439.9,328.1,450.7,328.1z
	 M450.7,333.3c-6.3,0-9.6,4-9.6,12.7s3.3,12.7,9.5,12.7s9.6-4,9.6-12.7S456.9,333.3,450.7,333.3L450.7,333.3z"/>
<path class="st0" d="M500.9,328.6c8,0,13.1,3.6,13.1,11.7c0,4-2,7.6-5.3,9.8l6.7,13.2h-6.8c-1.9-3.8-3.8-7.7-5.7-11.6
	c-0.6,0-1.6,0-2.8,0h-4.4v11.5h-6.1v-34.7L500.9,328.6z M495.6,346.5h5.9c4.5,0,6.3-3.4,6.3-6.5c0.1-3.4-2.6-6.2-6-6.2
	c-0.1,0-0.3,0-0.4,0h-5.8L495.6,346.5z"/>
<path class="st0" d="M544.7,363.3v-11.8l-11.9-22.8h6.9l8,16.5h0.3l7.8-16.5h6.8c-4,7.6-8,15.2-11.8,22.8v11.8H544.7z"/>
</svg>
