<?xml version="1.0" encoding="UTF-8"?><svg id="Layer_1" xmlns="http://www.w3.org/2000/svg" viewBox="0 0 514.33 315.62"><path d="M67.73,160.52c-6.1,0-11,4.9-11,11s4.9,11,11,11,11-4.9,11-11h0c0-6-4.9-11-11-11Z" style="fill:#313333;"/><circle cx="69.53" cy="86.32" r="7.9" style="fill:#313333;"/><circle cx="96.13" cy="111.92" r="12.1" style="fill:#313333;"/><path d="M60.53,132.92l-23-6.1c-.2-.1-.4-.2-.4-.4l-6.1-23c-.1-.3-.4-.5-.7-.4-.2,.1-.4,.2-.4,.4l-6.1,23c-.1,.2-.2,.4-.4,.4L.43,132.92c-.3,.1-.5,.4-.4,.7,.1,.2,.2,.4,.4,.4l23,6.1c.2,.1,.4,.2,.4,.4l6.1,23c.1,.3,.4,.5,.7,.4,.2-.1,.4-.2,.4-.4l6.1-23c.1-.2,.2-.4,.4-.4l23-6.1c.3-.1,.5-.4,.4-.7,0-.1-.2-.3-.4-.4Z" style="fill:#313333;"/><path d="M144.93,165.62l-15.1-5.8c-.1,0-.1-.1-.2-.2l-5.8-15.1c-.1-.2-.2-.2-.4-.2-.1,0-.1,.1-.2,.2l-5.8,15.1c0,.1-.1,.1-.2,.2l-15.1,5.8c-.2,.1-.2,.3-.2,.4s.1,.1,.2,.2l15.1,5.8c.1,0,.1,.1,.2,.2l5.8,15.1c.1,.2,.2,.2,.4,.2,.1,0,.1-.1,.2-.2l5.8-15.1c0-.1,.1-.1,.2-.2l15.1-5.8c.2,0,.3-.2,.2-.4,0-.1,0-.2-.2-.2Z" style="fill:#313333;"/><path d="M114.03,54.02c23.1-13.4,47.6-24.1,73.1-31.8,25.4-7.7,51.6-12.4,78.1-13.9h.2c2.2-.3,3.8-2.4,3.5-4.7-.3-2.1-2.2-3.6-4.3-3.5-26.9,2.7-53.4,8.6-79,17.5-25.4,8.9-49.7,20.7-72.4,35.2-.3,.2-.5,.7-.2,1,.2,.3,.6,.4,1,.2h0Z" style="fill:#313333;"/><path d="M316.53,7.92c28.5,2.1,56.6,7.9,83.6,17.2l14.2,35.7,1.5,.7c7.8,3.4,15.5,7.1,23.1,11.2-.1,.6-.1,1.2,0,1.9,.5,5.5,5.4,9.5,10.9,9s9.5-5.4,9-10.9-5.4-9.5-10.9-9c-1.9,.2-3.7,.9-5.1,2-7.3-3.9-14.8-7.5-22.3-10.9l-10.4-26c22.8,8.6,44.7,19.6,65.2,32.9-.9,5.4,2.7,10.6,8.2,11.6,5.4,.9,10.6-2.7,11.6-8.2s-2.7-10.6-8.2-11.6c-1.2-.2-2.5-.2-3.7,.1-1.2,.2-2.4,.7-3.5,1.4-23.4-15.1-48.5-27.4-74.8-36.6-.4-.2-.8-.3-1.2-.4C375.73,8.32,346.63,2.22,317.13,.02c-2.2-.2-4.1,1.5-4.3,3.7-.1,2.2,1.6,4.1,3.7,4.2h0Z" style="fill:#313333;"/><path d="M223.13,84.22c2.2-.7,3.3-3,2.6-5.2-.7-2-2.8-3.2-4.9-2.7-21.5,6.1-42.2,14.7-61.7,25.6-19.4,10.8-37.5,23.8-54.1,38.6-.3,.3-.3,.7-.1,1,.3,.3,.7,.3,1,.1,17.1-13.8,35.6-25.7,55.3-35.4,19.6-9.6,40.2-17,61.5-21.9l.4-.1Z" style="fill:#313333;"/><path d="M229.63,54.92c.3,1.4,1.6,2.3,3,2,24.1-4.7,48.7-6.3,73.2-4.9,21.4,1.3,42.6,4.9,63.3,10.7,.7,5.5,5.8,9.3,11.2,8.6s9.3-5.8,8.6-11.2c-.7-5.5-5.8-9.3-11.2-8.6-2.5,.3-4.8,1.6-6.4,3.5-21.3-5.6-43.1-8.8-65.1-9.7-25-1-50.1,1.2-74.6,6.5-1.4,.4-2.3,1.7-2,3.1Z" style="fill:#313333;"/><path d="M348.33,107.92c-3.1,0-6,1.5-7.9,3.9-10-1.9-20-3.2-30.2-3.8-26.2-1.7-52.5,.8-78,7.3-12.7,3.3-25.1,7.5-37.1,12.6-1.3,.6-1.9,2.1-1.4,3.4s2.1,1.9,3.4,1.4h0c11.9-4.8,24.1-8.7,36.5-11.6,24.9-5.8,50.5-7.7,76-5.6,9.7,.8,19.4,2.2,28.9,4.2,1,5.3,6.2,8.8,11.5,7.8s8.8-6.2,7.8-11.5c-.8-4.7-4.8-8.1-9.5-8.1h0Z" style="fill:#313333;"/><path d="M503.63,108.22c5.5,0,10-4.5,10-10s-4.5-10-10-10-10,4.5-10,10,4.5,10,10,10Z" style="fill:#313333;"/><path d="M503.83,170.22c-1.1,0-2.2,.2-3.2,.5-5.5-6-11.3-11.7-17.2-17.2-8-7.4-16.4-14.3-25.2-20.8-3.4-2.5-6.8-4.9-10.3-7.2l19.9-4.2c9.3,6.9,18.1,14.4,26.6,22.3-.4,1.2-.6,2.4-.6,3.7,.1,5.5,4.7,9.9,10.2,9.8,5.5-.1,9.9-4.7,9.8-10.2-.1-5.5-4.7-9.9-10.2-9.8h0c-1.2,0-2.4,.3-3.6,.8-9.1-8.5-18.7-16.6-28.8-24l-1.5-1.1-31.3,6.6c-21-13-43.7-23.2-67.4-30.2-2.1-.6-4.3,.6-5,2.7s.6,4.3,2.7,5c30.5,9.1,59.2,23.5,84.8,42.4,8.6,6.3,16.8,13.1,24.6,20.3,5.7,5.3,11.3,10.8,16.6,16.6-2.3,5-.2,11,4.8,13.3s11,.2,13.3-4.8,.2-11-4.8-13.3c-1.4-.7-2.8-1.1-4.2-1.2h0Z" style="fill:#313333;"/><polygon points="24.73 250.22 23.13 250.22 12.43 214.12 .63 214.12 16.13 262.42 31.03 262.42 46.53 214.12 34.63 214.12 24.73 250.22" style="fill:#313333;"/><polygon points="55.43 262.42 89.13 262.42 89.13 253.02 66.53 253.02 66.53 242.72 85.83 242.72 85.83 233.32 66.53 233.32 66.53 223.52 89.33 223.52 89.33 214.12 55.43 214.12 55.43 262.42" style="fill:#313333;"/><path d="M137.33,231.02c0-12.7-8.1-16.9-19.8-16.9h-16.8v48.3h11.1v-14.9h7.6c2.4,5,4.6,9.9,7,14.9h12.4l-8.6-17.8c4.4-3.2,7.1-8.2,7.1-13.6Zm-18.8,7.1h-6.6v-14.6h6.6c5.7,0,7.5,3.8,7.5,7.1s-1.8,7.5-7.5,7.5h0Z" style="fill:#313333;"/><path d="M162.23,214.02l-16,48.3h11.5l3-9.2h18l2.9,9.2h11.6l-16-48.3h-15Zm.7,29.5l6.3-20.2h.5l6.2,20.2h-13Z" style="fill:#313333;"/><path d="M228.83,237.92c0-11.1,4.8-15.2,13.7-15.2,3.8,.2,7.6,.9,11.2,2.1v-9.9c-4.3-1.2-8.8-1.7-13.3-1.7-14.5,0-22.8,9.5-22.8,24.9s7.6,25,22.9,25c4.5,0,9.1-.8,13.3-2.3v-9.7c-3.8,1.7-7.8,2.6-11.9,2.6-6.8,.1-13.1-3.6-13.1-15.8Z" style="fill:#313333;"/><rect x="265.03" y="254.92" width="6.5" height="7.5" style="fill:#313333;"/><path d="M331.73,231.02c0-12.7-8.1-16.9-19.8-16.9h-16.7v48.3h11v-14.9h7.6c2.4,5,4.6,9.9,7,14.9h12.4l-8.6-17.8c4.3-3.2,7-8.2,7.1-13.6Zm-18.9,7.1h-6.6v-14.6h6.6c5.7,0,7.5,3.8,7.5,7.1s-1.8,7.5-7.5,7.5Z" style="fill:#313333;"/><path d="M371.73,244.92c0,5.6-4.2,8.9-9.2,8.9s-9.2-3.3-9.2-8.9v-30.8h-11v29.8c0,12.3,6.2,19.2,20.2,19.2s20.2-7,20.2-19.3v-29.8h-11v30.9Z" style="fill:#313333;"/><path d="M425.33,237.42v-.3c3.8-2.1,6.1-6,6.1-10.3,0-6.6-4.7-12.7-15.3-12.7h-20.4v48.3h20.9c10.1,0,16.6-5.6,16.6-13.9,0-4.8-1.8-9-7.9-11.1Zm-18.6-13.9h7.6c3.7,0,6.2,1.5,6.2,4.6,0,4.2-3.2,5.4-6.5,5.4h-7.3v-10Zm9.2,29.5h-9.2v-10.1h8.8c3.8,0,6.3,1.1,6.3,4.8,.1,3.1-1.6,5.3-5.9,5.3Z" style="fill:#313333;"/><rect x="444.13" y="214.12" width="11.1" height="48.3" style="fill:#313333;"/><polygon points="499.83 214.12 499.83 245.02 480.23 214.12 468.43 214.12 468.43 262.42 479.43 262.42 479.43 232.52 499.13 262.42 510.73 262.42 510.73 214.12 499.83 214.12" style="fill:#313333;"/><path d="M23.03,279.82c10.8,0,15.8,6.6,15.8,17.9s-5,17.9-15.8,17.9-15.8-6.6-15.8-18,5-17.8,15.8-17.8Zm0,5.2c-6.3,0-9.6,4-9.6,12.7s3.3,12.7,9.5,12.7,9.6-4,9.6-12.7-3.3-12.7-9.5-12.7h0Z" style="fill:#313333;"/><path d="M86.23,289.22c0,3.4-1.8,6.4-4.8,8,4.4,1.3,6.1,4.4,6.1,8.1,0,5.7-4.4,9.7-11.3,9.7h-14.4v-34.7h13.8c7.3,0,10.6,4.3,10.6,8.9Zm-11.5,5.8c2.9,.1,5.4-2.1,5.5-5v-.1c0-2.7-2-4.4-5.4-4.4h-6.8v9.5h6.7Zm6.5,9.8c0-3.1-2.3-4.6-5.8-4.6h-7.6v9.6h7.9c3.8,0,5.5-2.2,5.5-5Z" style="fill:#313333;"/><path d="M126.13,304.82c0-4-3.9-4.5-8-5-4.7-.6-9.7-2.3-9.7-9.9,0-8.4,6.8-10.2,13.3-10.2,3,.1,6,.3,8.9,.7v5.4c-2.9-.5-5.9-.7-8.8-.8-4.8,0-7.2,1.5-7.2,4.8,0,3.6,3.2,4.2,6.9,4.7,5.1,.8,10.8,1.6,10.8,10.1,0,7.7-5.4,11-13.2,11-3.4,0-6.9-.3-10.3-1v-5.5c3.2,.7,6.5,1.1,9.8,1.2,4.9,0,7.5-1.8,7.5-5.5Z" style="fill:#313333;"/><path d="M178.03,280.32v5.2h-17.2v9.4h14.9v5.2h-14.9v9.6h17.1v5.2h-23.2v-34.7l23.3,.1Z" style="fill:#313333;"/><path d="M212.03,280.32c8,0,13.1,3.6,13.1,11.7,0,4-2,7.6-5.3,9.8l6.6,13.2h-6.8c-1.9-3.8-3.8-7.7-5.7-11.6h-7.2v11.5h-6.1v-34.7l11.4,.1Zm-5.3,17.9h5.9c4.5,0,6.3-3.4,6.3-6.5,.1-3.4-2.6-6.2-5.9-6.2h-6.3v12.7Z" style="fill:#313333;"/><path d="M264.63,315.02h-8.5l-11.6-34.7h6.6l9,28h.9l8.6-28h6.6l-11.6,34.7Z" style="fill:#313333;"/><path d="M303.13,280.22h8.4l11.9,34.8h-6.4l-2.4-7.2h-14.5l-2.4,7.3h-6.4l11.8-34.9Zm-1.7,22.2h11.6l-5.5-16.9h-.5l-5.6,16.9Z" style="fill:#313333;"/><path d="M367.13,285.52h-11.5v29.5h-6.1v-29.5h-11.5v-5.2h29l.1,5.2Z" style="fill:#313333;"/><path d="M402.43,279.82c10.8,0,15.8,6.6,15.8,17.9s-5,17.9-15.8,17.9-15.8-6.6-15.8-17.9,5-17.9,15.8-17.9Zm0,5.2c-6.3,0-9.6,4-9.6,12.7s3.3,12.7,9.5,12.7,9.6-4,9.6-12.7-3.3-12.7-9.5-12.7h0Z" style="fill:#313333;"/><path d="M452.63,280.32c8,0,13.1,3.6,13.1,11.7,0,4-2,7.6-5.3,9.8l6.7,13.2h-6.8c-1.9-3.8-3.8-7.7-5.7-11.6h-7.2v11.5h-6.1v-34.7l11.3,.1Zm-5.3,17.9h5.9c4.5,0,6.3-3.4,6.3-6.5,.1-3.4-2.6-6.2-6-6.2h-6.2v12.7Z" style="fill:#313333;"/><path d="M496.43,315.02v-11.8l-11.9-22.8h6.9l8,16.5h.3l7.8-16.5h6.8c-4,7.6-8,15.2-11.8,22.8v11.8h-6.1Z" style="fill:#313333;"/></svg>