<svg id="Layer_1" data-name="Layer 1" xmlns="http://www.w3.org/2000/svg" viewBox="0 0 800 800"><defs><style>.cls-1{fill:#00babc;}.cls-2{fill:#313333;}.cls-3{fill:#058b8c;}</style></defs><path class="cls-1" d="M210.51,402.76a11,11,0,1,0,11,11A11,11,0,0,0,210.51,402.76Z"/><circle class="cls-1" cx="212.28" cy="328.57" r="7.89"/><path class="cls-1" d="M251.06,354.1A12.1,12.1,0,1,0,239,366.2,12.09,12.09,0,0,0,251.06,354.1Z"/><path class="cls-1" d="M203.37,375.18l-23-6.09a.6.6,0,0,1-.42-.41l-6.09-23a.58.58,0,0,0-1.12,0l-6.1,23a.57.57,0,0,1-.41.41l-23,6.09a.58.58,0,0,0,0,1.12l23,6.09a.58.58,0,0,1,.41.41l6.1,23a.58.58,0,0,0,1.12,0l6.09-23a.62.62,0,0,1,.42-.41l23-6.09A.58.58,0,0,0,203.37,375.18Z"/><path class="cls-1" d="M287.77,407.8,272.71,402a.35.35,0,0,1-.18-.18l-5.83-15.06a.31.31,0,0,0-.58,0l-5.83,15.06a.32.32,0,0,1-.18.18l-15.06,5.83a.32.32,0,0,0,0,.59l15.06,5.83a.32.32,0,0,1,.18.18l5.83,15.06a.31.31,0,0,0,.58,0l5.83-15.06a.35.35,0,0,1,.18-.18l15.06-5.83A.32.32,0,0,0,287.77,407.8Z"/><path class="cls-1" d="M256.81,296.22a345.62,345.62,0,0,1,73.13-31.84,336.86,336.86,0,0,1,78.12-13.93h.18a4.1,4.1,0,0,0-.82-8.15,343.43,343.43,0,0,0-79,17.5A348.87,348.87,0,0,0,256.06,295a.72.72,0,0,0,.75,1.24Z"/><path class="cls-1" d="M459.37,250.18a333.08,333.08,0,0,1,83.57,17.17l14.23,35.7,1.51.66c7.79,3.38,15.54,7.13,23.12,11.18a9,9,0,0,0,0,1.87,10,10,0,1,0,3.86-8.88c-7.31-3.9-14.76-7.54-22.28-10.85L553,271a347.79,347.79,0,0,1,65.21,32.85,10,10,0,1,0,4.4-6.68,355.17,355.17,0,0,0-74.8-36.58,4.18,4.18,0,0,0-1.19-.4A341.76,341.76,0,0,0,460,242.2a4,4,0,1,0-.58,8Z"/><path class="cls-1" d="M365.94,326.42a4.1,4.1,0,0,0-2.25-7.88A291,291,0,0,0,302,344.12a297.67,297.67,0,0,0-54.05,38.59.74.74,0,0,0-.08,1,.73.73,0,0,0,1,.1,295,295,0,0,1,55.34-35.42,284.78,284.78,0,0,1,61.51-21.92Z"/><path class="cls-1" d="M372.42,297.13a2.55,2.55,0,0,0,3,2,294.09,294.09,0,0,1,73.23-4.87A297.55,297.55,0,0,1,511.93,305a10,10,0,1,0,2.2-7.68A304.49,304.49,0,0,0,449,287.64a300,300,0,0,0-74.57,6.51A2.57,2.57,0,0,0,372.42,297.13Z"/><path class="cls-1" d="M491.13,350.18a9.83,9.83,0,0,0-7.86,3.93,243.37,243.37,0,0,0-30.17-3.79,251,251,0,0,0-78,7.29,253.65,253.65,0,0,0-37.09,12.64,2.55,2.55,0,0,0,2,4.7h0a248.14,248.14,0,0,1,36.52-11.65,244.33,244.33,0,0,1,76-5.59,238.68,238.68,0,0,1,28.9,4.2,9.85,9.85,0,1,0,9.67-11.73Z"/><path class="cls-1" d="M646.46,350.41a10,10,0,1,0-10-10A10,10,0,0,0,646.46,350.41Z"/><path class="cls-1" d="M646.59,412.48a9.85,9.85,0,0,0-3.18.49c-5.54-6-11.29-11.74-17.2-17.17A297.21,297.21,0,0,0,601,375q-5.09-3.74-10.3-7.24l19.88-4.2a316.63,316.63,0,0,1,26.56,22.3,10.12,10.12,0,0,0-.62,3.71,10,10,0,1,0,9.74-10.24,9.82,9.82,0,0,0-3.57.76,325.73,325.73,0,0,0-28.79-24l-1.45-1.08-31.32,6.62a282.14,282.14,0,0,0-67.37-30.25,4,4,0,1,0-2.29,7.67,276,276,0,0,1,84.78,42.42,292.14,292.14,0,0,1,24.59,20.29c5.7,5.26,11.26,10.82,16.62,16.58a10,10,0,1,0,9.18-5.78Z"/><polygon class="cls-2" points="167.49 492.46 165.95 492.46 155.22 456.33 143.42 456.33 158.91 504.6 173.86 504.6 189.28 456.33 177.41 456.33 167.49 492.46"/><polygon class="cls-2" points="198.24 504.6 231.96 504.6 231.96 495.21 209.3 495.21 209.3 484.89 228.61 484.89 228.61 475.57 209.3 475.57 209.3 465.72 232.16 465.72 232.16 456.33 198.24 456.33 198.24 504.6"/><path class="cls-2" d="M280.16,473.22c0-12.73-8.11-16.89-19.77-16.89H243.63V504.6h11.06V489.72h7.64c2.42,5,4.63,9.92,7,14.88h12.41l-8.65-17.83A16.87,16.87,0,0,0,280.16,473.22Zm-18.83,7.11h-6.64V465.72h6.64c5.69,0,7.5,3.82,7.5,7.1S267,480.33,261.33,480.33Z"/><path class="cls-2" d="M305,456.26l-16,48.34h11.53l2.95-9.25h18l2.88,9.25H336l-16-48.34Zm.74,29.5,6.3-20.18h.54l6.17,20.18Z"/><path class="cls-2" d="M371.67,480.13c0-11.13,4.83-15.22,13.68-15.22a39.07,39.07,0,0,1,11.19,2.15V457.2a48.15,48.15,0,0,0-13.34-1.67c-14.54,0-22.79,9.45-22.79,24.87,0,16,7.64,25,22.93,25a40.45,40.45,0,0,0,13.34-2.28V493.4A29.64,29.64,0,0,1,384.74,496C377.91,496,371.67,492.33,371.67,480.13Z"/><rect class="cls-2" x="407.78" y="497.09" width="6.49" height="7.51"/><path class="cls-2" d="M474.49,473.22c0-12.73-8.11-16.89-19.78-16.89H438V504.6H449V489.72h7.65c2.41,5,4.62,9.92,7,14.88H476l-8.65-17.83A16.86,16.86,0,0,0,474.49,473.22Zm-18.84,7.11H449V465.72h6.64c5.7,0,7.51,3.82,7.51,7.1S461.35,480.33,455.65,480.33Z"/><path class="cls-2" d="M514.57,487.1c0,5.63-4.22,8.92-9.18,8.92s-9.19-3.29-9.19-8.92V456.33h-11v29.83c0,12.27,6.17,19.24,20.18,19.24s20.18-7,20.18-19.3V456.33h-11Z"/><path class="cls-2" d="M568.12,479.66v-.27a11.76,11.76,0,0,0,6.1-10.32c0-6.64-4.7-12.74-15.35-12.74H538.49V504.6H559.4c10.12,0,16.56-5.57,16.56-13.88C576,485.89,574.22,481.74,568.12,479.66Zm-18.57-13.94h7.57c3.69,0,6.17,1.47,6.17,4.62,0,4.16-3.15,5.43-6.5,5.43h-7.24Zm9.18,29.49h-9.18V485.09h8.85c3.75,0,6.3,1.14,6.3,4.83C564.7,493.07,563,495.21,558.73,495.21Z"/><rect class="cls-2" x="586.97" y="456.33" width="11.06" height="48.27"/><polygon class="cls-2" points="642.63 456.33 642.63 487.24 623.05 456.33 611.19 456.33 611.19 504.6 622.25 504.6 622.25 474.7 641.96 504.6 653.56 504.6 653.56 456.33 642.63 456.33"/><path class="cls-3" d="M165.78,522c10.8,0,15.76,6.6,15.76,17.93s-5,17.93-15.76,17.93S150,551.21,150,539.88,155,522,165.78,522Zm.05,5.25c-6.27,0-9.6,4-9.6,12.68s3.33,12.68,9.5,12.68,9.59-3.95,9.59-12.68S172,527.2,165.83,527.2Z"/><path class="cls-3" d="M229,531.44a9,9,0,0,1-4.82,8c4.44,1.3,6.13,4.39,6.13,8.1,0,5.73-4.39,9.73-11.33,9.73H204.61v-34.7H218.4C225.68,522.53,229,526.82,229,531.44Zm-11.52,5.79a5.25,5.25,0,0,0,5.5-5.06c0-2.65-2-4.39-5.45-4.39h-6.8v9.45ZM224,547c0-3.09-2.32-4.63-5.79-4.63h-7.57V552h7.91C222.3,552,224,549.86,224,547Z"/><path class="cls-3" d="M268.93,547.06c0-4-3.86-4.48-8-5-4.67-.63-9.73-2.27-9.73-9.88,0-8.39,6.75-10.22,13.35-10.22a84,84,0,0,1,8.92.67V528a66,66,0,0,0-8.82-.82c-4.82,0-7.23,1.5-7.23,4.82,0,3.62,3.23,4.15,6.89,4.73,5.06.82,10.8,1.64,10.8,10.07,0,7.67-5.4,11-13.21,11a53.53,53.53,0,0,1-10.27-1v-5.45a54.77,54.77,0,0,0,9.79,1.21C266.33,552.56,268.93,550.73,268.93,547.06Z"/><path class="cls-3" d="M320.85,522.53v5.25H303.64v9.4h14.85v5.21H303.64V552h17.11v5.25H297.57v-34.7Z"/><path class="cls-3" d="M354.78,522.53c8.05,0,13.11,3.56,13.11,11.66a11.57,11.57,0,0,1-5.3,9.79l6.65,13.25H362.4c-1.93-3.85-3.76-7.71-5.74-11.56-.63,0-1.64,0-2.8,0h-4.38v11.52H343.4v-34.7Zm-5.3,17.93h5.93c4.53,0,6.26-3.42,6.26-6.46a6.09,6.09,0,0,0-6.41-6.22h-5.78Z"/><path class="cls-3" d="M407.46,557.23H399l-11.62-34.7h6.56l9,28.05h.92l8.58-28.05H419Z"/><path class="cls-3" d="M445.9,522.48h8.44l11.85,34.75h-6.41L457.37,550H442.91l-2.41,7.27h-6.41Zm-1.69,22.12h11.62l-5.5-16.92h-.53Z"/><path class="cls-3" d="M509.93,527.78H498.46v29.45h-6.07V527.78H480.91v-5.25h29Z"/><path class="cls-3" d="M545.23,522c10.8,0,15.76,6.6,15.76,17.93s-5,17.93-15.76,17.93-15.77-6.6-15.77-17.93S534.43,522,545.23,522Zm0,5.25c-6.27,0-9.6,4-9.6,12.68s3.33,12.68,9.5,12.68,9.59-3.95,9.59-12.68S551.45,527.2,545.28,527.2Z"/><path class="cls-3" d="M595.44,522.53c8,0,13.11,3.56,13.11,11.66a11.58,11.58,0,0,1-5.31,9.79l6.66,13.25h-6.85c-1.93-3.85-3.76-7.71-5.73-11.56-.63,0-1.64,0-2.8,0h-4.39v11.52h-6.07v-34.7Zm-5.31,17.93h5.93c4.53,0,6.27-3.42,6.27-6.46a6.1,6.1,0,0,0-6.41-6.22h-5.79Z"/><path class="cls-3" d="M639.27,557.23V545.38l-11.86-22.85h6.9l8.05,16.53h.29l7.76-16.53h6.79c-4,7.61-8,15.23-11.85,22.85v11.85Z"/></svg>